{"asset":{"version":"2.0","generator":"VECTARY"},"nodes":[{"translation":[-0.14401208607294178,-8.881784197001253e-19,0.012575531682238534],"scale":[0.001,0.001,0.001],"rotation":[0,-0.7071067811865475,0,0.7071067811865476],"name":"Spot Light","extensions":{"KHR_lights_punctual":{"light":0}}},{"translation":[0.015630566944580728,1.0658141036401503e-17,-0.05945825106361585],"scale":[0.029390757327138896,0.029390757327138896,0.029390757327138896],"rotation":[-0.5454585762472554,-0.44997215647006095,-0.449972156470061,0.5454585762472555],"name":"Rocket #3","children":[2,3,4,5,6]},{"translation":[0,2.417572054545181e-16,0.794721543788911],"scale":[1.0000000000000002,1.0000000000000002,1.0000000000000002],"rotation":[0.7071067811865475,0,0,0.7071067811865476],"name":"Engine parts 1","mesh":0},{"translation":[0,4.638017839097698e-16,1.733131766319276],"scale":[1.0000000000000002,1.0000000000000002,1.0000000000000002],"rotation":[0.7071067811865475,0,0,0.7071067811865476],"name":"Engine parts 2","mesh":1},{"translation":[0,-6.464212142456071e-16,3.1143877506256112],"scale":[1.0000000000000002,1.0000000000000002,1.0000000000000002],"rotation":[0,0,0,1],"name":"Lights","mesh":2},{"translation":[-1.7881393432617188e-7,1.1920929023662767e-7,4.138297319412232],"scale":[1,1,1],"rotation":[0.7071067811865475,0,0,0.7071067811865476],"name":"Monocoque","mesh":3},{"translation":[0,1.1920929045867227e-7,4.075001239776612],"scale":[1,1,1],"rotation":[0.7071067811865475,0,0,0.7071067811865476],"name":"Frames","mesh":4},{"translation":[0,1.5777218104420236e-33,-8.079345828416395e-18],"scale":[0.005,0.005,0.005],"rotation":[-0.7071067811865475,0,0,0.7071067811865476],"name":"Inhabited Planet","children":[8,9,10,11,12,13,14,15,16,17,18]},{"translation":[-0.30474209785461476,-4.104310989379885,4.6153839826583845],"scale":[1,1,1],"rotation":[4.3297802811774664e-17,0.7071067811865475,0.7071067811865476,4.329780281177467e-17],"name":"Ground","mesh":5},{"translation":[-0.2509354352951055,-4.253809213638306,3.6701049804687487],"scale":[1,1,1],"rotation":[4.3297802811774664e-17,0.7071067811865475,0.7071067811865476,4.329780281177467e-17],"name":"Water","mesh":6},{"translation":[-0.11867702007293746,-3.747370123863221,4.141873598098753],"scale":[1,1,1],"rotation":[4.3297802811774664e-17,0.7071067811865475,0.7071067811865476,4.329780281177467e-17],"name":"Grass","mesh":7},{"translation":[-0.7238076925277713,-3.1496893167495728,1.4613021612167345],"scale":[1,1,1],"rotation":[4.3297802811774664e-17,0.7071067811865475,0.7071067811865476,4.329780281177467e-17],"name":"Mountains","mesh":8},{"translation":[2.5872731208801274,2.0396769046783447,0.5309835672378536],"scale":[1,1,1],"rotation":[4.3297802811774664e-17,0.7071067811865475,0.7071067811865476,4.329780281177467e-17],"name":"Mountaintop","mesh":9},{"translation":[-0.29249489307403614,-4.479926109313967,6.0029867753037225],"scale":[1,1,1],"rotation":[4.3297802811774664e-17,0.7071067811865475,0.7071067811865476,4.329780281177467e-17],"name":"Rocky Mountains","mesh":10},{"translation":[0.5553224682807922,-0.8841476142406477,8.12127184867859],"scale":[1,1,1],"rotation":[4.3297802811774664e-17,0.7071067811865475,0.7071067811865476,4.329780281177467e-17],"name":"Volcano","mesh":11},{"translation":[0.2401247508823871,-0.3942252248525633,8.592184901237488],"scale":[1,1,1],"rotation":[4.3297802811774664e-17,0.7071067811865475,0.7071067811865476,4.329780281177467e-17],"name":"Lava","mesh":12},{"translation":[1.0935809612274174,1.033067464828491,3.3784285783767682],"scale":[1,1,1],"rotation":[0,0,1,6.123233995736766e-17],"name":"City","mesh":13},{"translation":[-1.189370155334473,-1.360811233520508,0.582031846046446],"scale":[1,1,1],"rotation":[0,0,1,6.123233995736766e-17],"name":"Forest","mesh":14},{"translation":[0.7599874087419172,0.26676048055212565,8.776350881456562],"scale":[1,1,1],"rotation":[0,0,0,1],"name":"Smoke","mesh":15},{"translation":[0,0,0],"scale":[0.001,0.001,0.001],"rotation":[-0.7071067811865475,0,0,0.7071067811865476],"name":"Logo_2018","mesh":16},{"translation":[0,0.021559909560106803,3.552713678800501e-18],"scale":[0.001,0.001,0.001],"rotation":[-0.7071067811865475,0,0,0.7071067811865476],"name":"Logo_2018 1","mesh":17}],"extensions":{"KHR_lights_punctual":{"lights":[{"name":"Spot Light","type":"spot","intensity":0.4,"range":10000,"color":[1,1,1],"spot":{"innerConeAngle":0.667588438887831,"outerConeAngle":0.7853981633974483}}]}},"materials":[{"pbrMetallicRoughness":{"baseColorFactor":[0.8000000715255736,0.012169779278337955,0.0024884592276066537,1],"metallicFactor":0,"roughnessFactor":1},"name":"Material 55","emissiveFactor":[0,0,0],"alphaMode":"OPAQUE","doubleSided":false},{"pbrMetallicRoughness":{"baseColorFactor":[0.8006539344787599,0.8006539344787599,0.8006539344787599,1],"metallicFactor":0,"roughnessFactor":0.5},"name":"Material 56","emissiveFactor":[0,0,0],"alphaMode":"OPAQUE","doubleSided":false},{"pbrMetallicRoughness":{"baseColorFactor":[1,1,1,1],"metallicFactor":1,"roughnessFactor":1},"name":"Material 57","emissiveFactor":[0.12015573680400848,0.3390901982784271,1],"alphaMode":"OPAQUE","doubleSided":false},{"pbrMetallicRoughness":{"baseColorFactor":[0.8000000715255736,0.49283611774444575,0.15684698522090912,1],"metallicFactor":0,"roughnessFactor":0.5},"name":"Material 5","emissiveFactor":[0,0,0],"alphaMode":"OPAQUE","doubleSided":false},{"pbrMetallicRoughness":{"baseColorFactor":[0.21551643311977386,0.3505557179450988,0.06392350792884827,1],"metallicFactor":0,"roughnessFactor":0.5},"name":"Material 6","emissiveFactor":[0,0,0],"alphaMode":"OPAQUE","doubleSided":false},{"pbrMetallicRoughness":{"baseColorFactor":[0.13965697586536405,0.2807356715202331,0.8000000715255736,1],"metallicFactor":0,"roughnessFactor":0.4000000059604645},"name":"Material 7","emissiveFactor":[0,0,0],"alphaMode":"OPAQUE","doubleSided":false},{"pbrMetallicRoughness":{"baseColorFactor":[0.3505557179450988,0.3505557179450988,0.3505557179450988,1],"metallicFactor":0,"roughnessFactor":0.5},"name":"Material 8","emissiveFactor":[0,0,0],"alphaMode":"OPAQUE","doubleSided":false},{"pbrMetallicRoughness":{"baseColorFactor":[1,1,1,1],"metallicFactor":0,"roughnessFactor":0.5},"name":"Material 9","emissiveFactor":[0,0,0],"alphaMode":"OPAQUE","doubleSided":false},{"pbrMetallicRoughness":{"baseColorFactor":[0.8000000715255736,0.20713056623935697,0.03941155970096587,1],"metallicFactor":0,"roughnessFactor":0.5},"name":"Material 10","emissiveFactor":[0,0,0],"alphaMode":"OPAQUE","doubleSided":false},{"pbrMetallicRoughness":{"baseColorFactor":[0.035205729305744164,0.0131008131429553,0.01262848824262619,1],"metallicFactor":0,"roughnessFactor":0.5},"name":"Material 11","emissiveFactor":[0,0,0],"alphaMode":"OPAQUE","doubleSided":false},{"pbrMetallicRoughness":{"baseColorFactor":[1,0.03561436968491877,0.03561436968491877,1],"metallicFactor":1,"roughnessFactor":1},"name":"Red material","emissiveFactor":[1,0.015208903700113297,0.0069984328001737595],"alphaMode":"OPAQUE","doubleSided":false},{"pbrMetallicRoughness":{"baseColorFactor":[0.12823931872844693,0.12823931872844693,0.12823931872844693,1],"metallicFactor":0,"roughnessFactor":0.5},"name":"Material 3","emissiveFactor":[0,0,0],"alphaMode":"OPAQUE","doubleSided":false},{"pbrMetallicRoughness":{"baseColorFactor":[0.5215676426887512,0.8000000715255736,0.17338857054710388,1],"metallicFactor":0,"roughnessFactor":0.5},"name":"Material 4","emissiveFactor":[0,0,0],"alphaMode":"OPAQUE","doubleSided":false},{"pbrMetallicRoughness":{"baseColorFactor":[0.5479935021969718,0.5479935021969718,0.5479935021969718,1],"metallicFactor":0,"roughnessFactor":0.2},"name":"Vert.001 material","emissiveFactor":[0,0,0],"alphaMode":"OPAQUE","doubleSided":false},{"pbrMetallicRoughness":{"baseColorFactor":[1,1,1,1],"baseColorTexture":{"index":0,"extensions":{"KHR_texture_transform":{"offset":[0,0],"scale":[1,1],"rotation":0}},"texCoord":0},"metallicFactor":0,"roughnessFactor":1},"name":"","emissiveTexture":{"index":1,"extensions":{"KHR_texture_transform":{"offset":[0,0],"scale":[1,1],"rotation":0}},"texCoord":0},"emissiveFactor":[0,0,0],"alphaMode":"BLEND","doubleSided":true},{"pbrMetallicRoughness":{"baseColorFactor":[1,1,1,1],"baseColorTexture":{"index":0,"extensions":{"KHR_texture_transform":{"offset":[0,0],"scale":[1,1],"rotation":0}},"texCoord":0},"metallicFactor":0,"roughnessFactor":1},"name":"","emissiveTexture":{"index":1,"extensions":{"KHR_texture_transform":{"offset":[0,0],"scale":[1,1],"rotation":0}},"texCoord":0},"emissiveFactor":[0,0,0],"alphaMode":"BLEND","doubleSided":true}],"meshes":[{"primitives":[{"mode":4,"attributes":{"POSITION":1,"NORMAL":2},"material":0,"indices":0}]},{"primitives":[{"mode":4,"attributes":{"POSITION":4,"NORMAL":5},"material":1,"indices":3}]},{"primitives":[{"mode":4,"attributes":{"POSITION":7,"NORMAL":8},"material":2,"indices":6}]},{"primitives":[{"mode":4,"attributes":{"POSITION":10,"NORMAL":11},"material":1,"indices":9}]},{"primitives":[{"mode":4,"attributes":{"POSITION":13,"NORMAL":14},"material":0,"indices":12}]},{"primitives":[{"mode":4,"attributes":{"POSITION":16,"NORMAL":17},"material":3,"indices":15}]},{"primitives":[{"mode":4,"attributes":{"POSITION":19,"NORMAL":20},"material":4,"indices":18}]},{"primitives":[{"mode":4,"attributes":{"POSITION":22,"NORMAL":23},"material":5,"indices":21}]},{"primitives":[{"mode":4,"attributes":{"POSITION":25,"NORMAL":26},"material":6,"indices":24}]},{"primitives":[{"mode":4,"attributes":{"POSITION":28,"NORMAL":29},"material":7,"indices":27}]},{"primitives":[{"mode":4,"attributes":{"POSITION":31,"NORMAL":32},"material":8,"indices":30}]},{"primitives":[{"mode":4,"attributes":{"POSITION":34,"NORMAL":35},"material":9,"indices":33}]},{"primitives":[{"mode":4,"attributes":{"POSITION":37,"NORMAL":38},"material":10,"indices":36}]},{"primitives":[{"mode":4,"attributes":{"POSITION":40,"NORMAL":41},"material":11,"indices":39}]},{"primitives":[{"mode":4,"attributes":{"POSITION":43,"NORMAL":44},"material":12,"indices":42}]},{"primitives":[{"mode":4,"attributes":{"POSITION":46,"NORMAL":47},"material":13,"indices":45}]},{"primitives":[{"mode":4,"attributes":{"POSITION":49,"NORMAL":50,"TEXCOORD_0":51},"material":14,"indices":48}]},{"primitives":[{"mode":4,"attributes":{"POSITION":53,"NORMAL":54,"TEXCOORD_0":55},"material":15,"indices":52}]}],"accessors":[{"bufferView":0,"byteOffset":0,"componentType":5125,"count":1296,"type":"SCALAR"},{"bufferView":1,"byteOffset":0,"componentType":5126,"count":624,"max":[1.3629475831985474,0.7947215437889099,1.3629471063613892],"min":[-1.3629475831985474,-0.7947215437889099,-1.3629471063613892],"type":"VEC3"},{"bufferView":2,"byteOffset":0,"componentType":5126,"count":624,"type":"VEC3"},{"bufferView":3,"byteOffset":0,"componentType":5125,"count":1164,"type":"SCALAR"},{"bufferView":4,"byteOffset":0,"componentType":5126,"count":588,"max":[1.8517810106277466,1.0728213787078857,1.8757003545761108],"min":[-1.8517810106277466,-1.0728214979171753,-1.8757003545761108],"type":"VEC3"},{"bufferView":5,"byteOffset":0,"componentType":5126,"count":588,"type":"VEC3"},{"bufferView":6,"byteOffset":0,"componentType":5125,"count":432,"type":"SCALAR"},{"bufferView":7,"byteOffset":0,"componentType":5126,"count":196,"max":[1.2975610494613647,1.2975603342056274,3.1143877506256104],"min":[-1.2975610494613647,-1.2975603342056274,-3.1143877506256104],"type":"VEC3"},{"bufferView":8,"byteOffset":0,"componentType":5126,"count":196,"type":"VEC3"},{"bufferView":9,"byteOffset":0,"componentType":5125,"count":1698,"type":"SCALAR"},{"bufferView":10,"byteOffset":0,"componentType":5126,"count":501,"max":[1.0744102001190186,2.9450602531433105,1.0744099617004395],"min":[-1.0744102001190186,-2.9450602531433105,-1.0744099617004395],"type":"VEC3"},{"bufferView":11,"byteOffset":0,"componentType":5126,"count":501,"type":"VEC3"},{"bufferView":12,"byteOffset":0,"componentType":5125,"count":1362,"type":"SCALAR"},{"bufferView":13,"byteOffset":0,"componentType":5126,"count":519,"max":[1.1353203058242798,4.0724029541015625,1.1353201866149902],"min":[-1.1353203058242798,-4.0724029541015625,-1.1353201866149902],"type":"VEC3"},{"bufferView":14,"byteOffset":0,"componentType":5126,"count":519,"type":"VEC3"},{"bufferView":15,"byteOffset":0,"componentType":5125,"count":3264,"type":"SCALAR"},{"bufferView":16,"byteOffset":0,"componentType":5126,"count":1289,"max":[3.897838592529297,4.233161449432373,8.4132080078125],"min":[-3.897838592529297,-4.233161449432373,4.440892098500626e-16],"type":"VEC3"},{"bufferView":17,"byteOffset":0,"componentType":5126,"count":1289,"type":"VEC3"},{"bufferView":18,"byteOffset":0,"componentType":5125,"count":1710,"type":"SCALAR"},{"bufferView":19,"byteOffset":0,"componentType":5126,"count":542,"max":[4,3.67010498046875,8.562705993652344],"min":[-4,-3.67010498046875,-1.9721522630525295e-31],"type":"VEC3"},{"bufferView":20,"byteOffset":0,"componentType":5126,"count":542,"type":"VEC3"},{"bufferView":21,"byteOffset":0,"componentType":5125,"count":1458,"type":"SCALAR"},{"bufferView":22,"byteOffset":0,"componentType":5126,"count":550,"max":[3.867741584777832,4.0565595626831055,7.275799751281738],"min":[-3.867741584777832,-4.0565595626831055,4.440892098500626e-16],"type":"VEC3"},{"bufferView":23,"byteOffset":0,"componentType":5126,"count":550,"type":"VEC3"},{"bufferView":24,"byteOffset":0,"componentType":5125,"count":906,"type":"SCALAR"},{"bufferView":25,"byteOffset":0,"componentType":5126,"count":387,"max":[3.51192569732666,1.2022886276245117,5.865253448486328],"min":[-3.51192569732666,-1.2022886276245117,4.440892098500626e-16],"type":"VEC3"},{"bufferView":26,"byteOffset":0,"componentType":5126,"count":387,"type":"VEC3"},{"bufferView":27,"byteOffset":0,"componentType":5125,"count":54,"type":"SCALAR"},{"bufferView":28,"byteOffset":0,"componentType":5126,"count":35,"max":[0.218062162399292,0.23053503036499023,0.3026890754699707],"min":[-0.218062162399292,-0.23053503036499023,0],"type":"VEC3"},{"bufferView":29,"byteOffset":0,"componentType":5126,"count":35,"type":"VEC3"},{"bufferView":30,"byteOffset":0,"componentType":5125,"count":1539,"type":"SCALAR"},{"bufferView":31,"byteOffset":0,"componentType":5126,"count":638,"max":[3.0865907669067383,2.001504421234131,8.925165176391602],"min":[-3.0865907669067383,-2.001504421234131,0],"type":"VEC3"},{"bufferView":32,"byteOffset":0,"componentType":5126,"count":638,"type":"VEC3"},{"bufferView":33,"byteOffset":0,"componentType":5125,"count":855,"type":"SCALAR"},{"bufferView":34,"byteOffset":0,"componentType":5126,"count":364,"max":[1.4075531959533691,0.7299624681472778,2.386582374572754],"min":[-1.4075531959533691,-0.7299624681472778,1.1102230246251565e-16],"type":"VEC3"},{"bufferView":35,"byteOffset":0,"componentType":5126,"count":364,"type":"VEC3"},{"bufferView":36,"byteOffset":0,"componentType":5125,"count":105,"type":"SCALAR"},{"bufferView":37,"byteOffset":0,"componentType":5126,"count":33,"max":[0.5791680216789246,0.10904216766357422,1.0679329633712769],"min":[-0.5791680216789246,-0.10904216766357422,4.163336342344337e-16],"type":"VEC3"},{"bufferView":38,"byteOffset":0,"componentType":5126,"count":33,"type":"VEC3"},{"bufferView":39,"byteOffset":0,"componentType":5125,"count":3720,"type":"SCALAR"},{"bufferView":40,"byteOffset":0,"componentType":5126,"count":2042,"max":[3.863039493560791,3.9170010089874268,3.8281631469726562],"min":[-3.863039493560791,-3.9170010089874268,0],"type":"VEC3"},{"bufferView":41,"byteOffset":0,"componentType":5126,"count":2042,"type":"VEC3"},{"bufferView":42,"byteOffset":0,"componentType":5125,"count":8580,"type":"SCALAR"},{"bufferView":43,"byteOffset":0,"componentType":5126,"count":5200,"max":[3.7672502994537354,3.58925724029541,5.120710849761963],"min":[-3.7672502994537354,-3.58925724029541,0],"type":"VEC3"},{"bufferView":44,"byteOffset":0,"componentType":5126,"count":5200,"type":"VEC3"},{"bufferView":45,"byteOffset":0,"componentType":5125,"count":2904,"type":"SCALAR"},{"bufferView":46,"byteOffset":0,"componentType":5126,"count":1072,"max":[0.817004919052124,0.701525092124939,1.429520606994629],"min":[-0.817004919052124,-0.701525092124939,0],"type":"VEC3"},{"bufferView":47,"byteOffset":0,"componentType":5126,"count":1072,"type":"VEC3"},{"bufferView":48,"byteOffset":0,"componentType":5125,"count":150,"type":"SCALAR"},{"bufferView":49,"byteOffset":0,"componentType":5126,"count":36,"max":[128,82.94400024414062,0.20000000298023224],"min":[-128,-82.94400024414062,0.20000000298023224],"type":"VEC3"},{"bufferView":50,"byteOffset":0,"componentType":5126,"count":36,"type":"VEC3"},{"bufferView":51,"byteOffset":0,"componentType":5126,"count":36,"type":"VEC2"},{"bufferView":52,"byteOffset":0,"componentType":5125,"count":150,"type":"SCALAR"},{"bufferView":53,"byteOffset":0,"componentType":5126,"count":36,"max":[128,82.94400024414062,0.20000000298023224],"min":[-128,-82.94400024414062,0.20000000298023224],"type":"VEC3"},{"bufferView":54,"byteOffset":0,"componentType":5126,"count":36,"type":"VEC3"},{"bufferView":55,"byteOffset":0,"componentType":5126,"count":36,"type":"VEC2"}],"bufferViews":[{"buffer":0,"byteOffset":0,"byteLength":5184,"target":34963},{"buffer":0,"byteOffset":5184,"byteLength":7488,"target":34962},{"buffer":0,"byteOffset":12672,"byteLength":7488,"target":34962},{"buffer":0,"byteOffset":20160,"byteLength":4656,"target":34963},{"buffer":0,"byteOffset":24816,"byteLength":7056,"target":34962},{"buffer":0,"byteOffset":31872,"byteLength":7056,"target":34962},{"buffer":0,"byteOffset":38928,"byteLength":1728,"target":34963},{"buffer":0,"byteOffset":40656,"byteLength":2352,"target":34962},{"buffer":0,"byteOffset":43008,"byteLength":2352,"target":34962},{"buffer":0,"byteOffset":45360,"byteLength":6792,"target":34963},{"buffer":0,"byteOffset":52152,"byteLength":6012,"target":34962},{"buffer":0,"byteOffset":58164,"byteLength":6012,"target":34962},{"buffer":0,"byteOffset":64176,"byteLength":5448,"target":34963},{"buffer":0,"byteOffset":69624,"byteLength":6228,"target":34962},{"buffer":0,"byteOffset":75852,"byteLength":6228,"target":34962},{"buffer":0,"byteOffset":82080,"byteLength":13056,"target":34963},{"buffer":0,"byteOffset":95136,"byteLength":15468,"target":34962},{"buffer":0,"byteOffset":110604,"byteLength":15468,"target":34962},{"buffer":0,"byteOffset":126072,"byteLength":6840,"target":34963},{"buffer":0,"byteOffset":132912,"byteLength":6504,"target":34962},{"buffer":0,"byteOffset":139416,"byteLength":6504,"target":34962},{"buffer":0,"byteOffset":145920,"byteLength":5832,"target":34963},{"buffer":0,"byteOffset":151752,"byteLength":6600,"target":34962},{"buffer":0,"byteOffset":158352,"byteLength":6600,"target":34962},{"buffer":0,"byteOffset":164952,"byteLength":3624,"target":34963},{"buffer":0,"byteOffset":168576,"byteLength":4644,"target":34962},{"buffer":0,"byteOffset":173220,"byteLength":4644,"target":34962},{"buffer":0,"byteOffset":177864,"byteLength":216,"target":34963},{"buffer":0,"byteOffset":178080,"byteLength":420,"target":34962},{"buffer":0,"byteOffset":178500,"byteLength":420,"target":34962},{"buffer":0,"byteOffset":178920,"byteLength":6156,"target":34963},{"buffer":0,"byteOffset":185076,"byteLength":7656,"target":34962},{"buffer":0,"byteOffset":192732,"byteLength":7656,"target":34962},{"buffer":0,"byteOffset":200388,"byteLength":3420,"target":34963},{"buffer":0,"byteOffset":203808,"byteLength":4368,"target":34962},{"buffer":0,"byteOffset":208176,"byteLength":4368,"target":34962},{"buffer":0,"byteOffset":212544,"byteLength":420,"target":34963},{"buffer":0,"byteOffset":212964,"byteLength":396,"target":34962},{"buffer":0,"byteOffset":213360,"byteLength":396,"target":34962},{"buffer":0,"byteOffset":213756,"byteLength":14880,"target":34963},{"buffer":0,"byteOffset":228636,"byteLength":24504,"target":34962},{"buffer":0,"byteOffset":253140,"byteLength":24504,"target":34962},{"buffer":0,"byteOffset":277644,"byteLength":34320,"target":34963},{"buffer":0,"byteOffset":311964,"byteLength":62400,"target":34962},{"buffer":0,"byteOffset":374364,"byteLength":62400,"target":34962},{"buffer":0,"byteOffset":436764,"byteLength":11616,"target":34963},{"buffer":0,"byteOffset":448380,"byteLength":12864,"target":34962},{"buffer":0,"byteOffset":461244,"byteLength":12864,"target":34962},{"buffer":0,"byteOffset":474108,"byteLength":600,"target":34963},{"buffer":0,"byteOffset":474708,"byteLength":432,"target":34962},{"buffer":0,"byteOffset":475140,"byteLength":432,"target":34962},{"buffer":0,"byteOffset":475572,"byteLength":288,"target":34962},{"buffer":0,"byteOffset":475860,"byteLength":600,"target":34963},{"buffer":0,"byteOffset":476460,"byteLength":432,"target":34962},{"buffer":0,"byteOffset":476892,"byteLength":432,"target":34962},{"buffer":0,"byteOffset":477324,"byteLength":288,"target":34962}],"textures":[{"sampler":0,"source":0},{"sampler":0,"source":1}],"images":[{"uri":"Logo_2018&Logo_2018_alpha.png","mimeType":"image/png"},{"uri":"Logo_2018.jpg","mimeType":"image/jpeg"}],"samplers":[{"wrapS":33071,"wrapT":33071}],"scene":0,"scenes":[{"nodes":[0,1,7,19,20],"name":"Project Name"}],"extensionsUsed":["KHR_texture_transform","KHR_lights_punctual"],"extensionsRequired":["KHR_lights_punctual"],"buffers":[{"byteLength":477612,"uri":"ProjectName.bin"}]}